<?xml version="1.0" encoding="UTF-8"?>
<svg version="1.1" xmlns="http://www.w3.org/2000/svg" width="2000" height="2000">
<path d="M0 0 C660 0 1320 0 2000 0 C2000 660 2000 1320 2000 2000 C1340 2000 680 2000 0 2000 C0 1340 0 680 0 0 Z " fill="#D3ECF3" transform="translate(0,0)"/>
<path d="M0 0 C202.3153527 0 202.3153527 0 250 26 C251.01578125 26.53882813 252.0315625 27.07765625 253.078125 27.6328125 C267.19821016 35.44793985 279.44190446 45.83537154 291 57 C291.65097656 57.59941406 292.30195312 58.19882812 292.97265625 58.81640625 C313.46501251 78.14607563 327.16529486 105.45177657 338 131 C338.74056641 132.74216797 338.74056641 132.74216797 339.49609375 134.51953125 C342.81015734 142.72725884 345.10265317 151.16114199 347.375 159.70019531 C347.972884 161.90022158 348.60372091 164.08719652 349.25 166.2734375 C355.03972714 185.97207943 358.28572201 205.90452016 360.75 226.25 C360.85691162 227.13245392 360.96382324 228.01490784 361.07397461 228.92410278 C361.38250418 231.4957111 361.68509337 234.06792504 361.984375 236.640625 C362.11685638 237.76624092 362.11685638 237.76624092 362.25201416 238.91459656 C363.7218204 251.85003566 364.17452075 264.66344059 364.203125 277.66796875 C364.20595238 278.55137751 364.20877975 279.43478626 364.21169281 280.34496498 C364.22660764 285.03963125 364.23588018 289.73426751 364.24023438 294.42895508 C364.24457788 298.23048722 364.2583188 302.03178713 364.28125 305.83325195 C364.4641943 336.77970277 363.51336261 367.46280941 358 398 C357.69255859 399.7334668 357.69255859 399.7334668 357.37890625 401.50195312 C354.43784644 417.91040828 351.2217725 434.14015132 346 450 C345.64953613 451.06782715 345.29907227 452.1356543 344.93798828 453.23583984 C333.77548616 486.77062491 318.48364967 517.20045385 294 543 C293.55430664 543.4729248 293.10861328 543.94584961 292.64941406 544.43310547 C281.46802245 556.22460047 268.94166078 565.68771026 255 574 C254.38237793 574.3697998 253.76475586 574.73959961 253.12841797 575.12060547 C240.45166583 582.57656711 226.88975598 587.30700343 213 592 C212.19618896 592.28133789 211.39237793 592.56267578 210.56420898 592.85253906 C147.3040333 614.73580797 52.40273401 602 0 602 C0 403.34 0 204.68 0 0 Z " fill="#D3ECF3" transform="translate(840,750)"/>
<path d="M0 0 C282.67732962 0 282.67732962 0 331 16 C331.76554199 16.24975586 332.53108398 16.49951172 333.31982422 16.75683594 C364.86938793 27.13155663 393.78283343 41.56442772 420 62 C420.87785156 62.68320312 421.75570313 63.36640625 422.66015625 64.0703125 C437.11933918 75.61210506 450.47833115 88.53819237 462 103 C462.88906358 104.09786632 463.77839406 105.19551653 464.66796875 106.29296875 C495.66184727 144.79884834 514.66736659 190.75664561 525.5 238.6875 C525.78981247 239.96800735 525.78981247 239.96800735 526.08547974 241.27438354 C530.28891349 260.04120512 533.07148666 278.87310362 535 298 C535.19480957 299.9190918 535.19480957 299.9190918 535.39355469 301.87695312 C537.0403313 319.21192935 537.17216852 336.53858298 537.1875 353.9375 C537.18926743 355.46451035 537.18926743 355.46451035 537.19107056 357.02236938 C537.18831561 378.00634889 536.69908176 398.90953335 534.125 419.75 C533.94220993 421.27251181 533.75967846 422.79505469 533.57739258 424.31762695 C533.06671188 428.54705411 532.5347962 432.77355756 532 437 C531.87898926 437.98983887 531.75797852 438.97967773 531.63330078 439.99951172 C528.89231617 462.13433508 524.13519584 484.74319044 516.76367188 505.8046875 C515.95746775 508.12226663 515.18826586 510.45022255 514.421875 512.78125 C506.29178435 537.1691109 495.69743032 561.80239897 481 583 C479.88044922 584.62035156 479.88044922 584.62035156 478.73828125 586.2734375 C438.22233486 644.22959469 379.160858 683.77216643 309.72509766 698.41650391 C307.26816074 698.9425816 304.8281 699.51211091 302.38671875 700.10546875 C292.13156461 702.53264333 281.76192684 703.9122016 271.3125 705.1875 C270.62293213 705.27235657 269.93336426 705.35721313 269.22290039 705.44464111 C267.18706976 705.69223722 265.15045545 705.93170124 263.11328125 706.16796875 C261.34658081 706.37329224 261.34658081 706.37329224 259.54418945 706.58276367 C173.39056508 714.49317812 86.51601961 708 0 708 C0 474.36 0 240.72 0 0 Z M83 53 C83 251.66 83 450.32 83 655 C239.71312265 664.85975149 239.71312265 664.85975149 373 600 C373.93972656 599.113125 374.87945313 598.22625 375.84765625 597.3125 C399.19978579 574.71578394 413.95757045 545.13802846 424.9230957 514.95581055 C425.61890843 513.04599312 426.32752479 511.14077023 427.05151367 509.24145508 C429.69047421 502.25165616 431.65642283 495.19008711 433.4375 487.9375 C433.73825439 486.71361572 434.03900879 485.48973145 434.34887695 484.22875977 C438.78741684 465.87294462 442.11196383 447.56830838 444.25 428.8125 C444.33317474 428.08296112 444.41634949 427.35342224 444.50204468 426.60177612 C446.32608621 410.37200149 447.16731631 394.28363758 447.203125 377.9609375 C447.20595238 377.07312214 447.20877975 376.18530678 447.21169281 375.27058792 C447.22657509 370.56222502 447.23587084 365.85389184 447.24023438 361.14550781 C447.24459642 357.3234694 447.25841558 353.50165959 447.28125 349.6796875 C447.40697203 328.20167202 447.15087312 307.13649536 444.36340332 285.80682373 C444.04269273 283.32974647 443.75463529 280.85333432 443.49121094 278.36962891 C440.81452339 253.1435889 435.96698824 228.12162474 428 204 C427.75314453 203.2378418 427.50628906 202.47568359 427.25195312 201.69042969 C410.6511611 150.81245217 379.65795086 102.89761762 330.96386719 77.76367188 C323.12520354 73.84245122 315.12985177 70.27439369 307 67 C305.95199219 66.56945312 304.90398437 66.13890625 303.82421875 65.6953125 C236.62596157 39.78173308 144.2536176 53 83 53 Z " fill="#2A2E30" transform="translate(757,697)"/>
<path d="M0 0 C1.65721123 1.39072257 3.28977521 2.80403934 4.91137695 4.23608398 C5.43425293 4.69708496 5.95712891 5.15808594 6.49584961 5.63305664 C23.34644691 20.79595718 36.2651736 42.28722408 41.91137695 64.23608398 C42.17104248 65.20263916 42.43070801 66.16919434 42.69824219 67.16503906 C44.91992711 76.26114875 45.34713538 84.85426295 45.24755859 94.17871094 C45.22372881 96.56340866 45.22705544 98.94699834 45.23364258 101.33178711 C45.22075533 108.83319344 45.09126752 116.00106384 42.91137695 123.23608398 C42.61565796 124.37001587 42.61565796 124.37001587 42.31396484 125.52685547 C33.63056959 158.65988827 13.85615219 186.37807503 -15.7800293 203.88061523 C-27.78756826 210.64023003 -40.66821249 215.24438037 -54.08862305 218.23608398 C-54.81073975 218.41115479 -55.53285645 218.58622559 -56.27685547 218.76660156 C-59.91273192 219.37368591 -63.50283757 219.41808827 -67.1784668 219.43920898 C-68.34993004 219.44775909 -68.34993004 219.44775909 -69.5450592 219.45648193 C-71.1983201 219.46590686 -72.85159957 219.47245592 -74.50488281 219.47631836 C-76.98692538 219.48593216 -79.46810587 219.51693978 -81.94995117 219.54858398 C-91.7691357 219.61420183 -100.56455186 218.8356667 -110.08862305 216.23608398 C-110.8242749 216.04256348 -111.55992676 215.84904297 -112.31787109 215.6496582 C-132.09482021 210.12095422 -149.33822463 199.37420171 -164.08862305 185.23608398 C-164.95487305 184.41108398 -165.82112305 183.58608398 -166.71362305 182.73608398 C-167.49737305 181.91108398 -168.28112305 181.08608398 -169.08862305 180.23608398 C-169.6919043 179.60444336 -170.29518555 178.97280273 -170.91674805 178.32202148 C-176.10929681 172.71327606 -180.23643645 166.82779059 -184.08862305 160.23608398 C-184.74991211 159.12491211 -185.41120117 158.01374023 -186.0925293 156.86889648 C-191.69465913 147.14063115 -195.25717721 137.07732955 -198.08862305 126.23608398 C-198.26796387 125.55916504 -198.44730469 124.88224609 -198.63208008 124.18481445 C-206.3237499 93.63964302 -200.69688516 60.28267505 -184.77612305 33.36108398 C-166.90615525 4.42094828 -139.46498167 -15.97267253 -106.53051758 -24.67089844 C-69.70498532 -33.33690251 -29.23450878 -23.69498796 0 0 Z " fill="#2A2E30" transform="translate(1540.088623046875,1199.763916015625)"/>
<path d="M0 0 C0.69221649 0.00143005 1.38443298 0.00286011 2.09762573 0.0043335 C20.3361172 0.09697977 36.94323284 3.88544907 53.5 11.5 C54.53125 11.96148438 55.5625 12.42296875 56.625 12.8984375 C85.6415793 26.57552306 107.72951621 52.73218872 118.60375977 82.69555664 C129.34859386 113.85981032 126.50239033 149.04224355 112.58203125 178.74609375 C106.44440038 191.06299268 97.88536649 201.52040174 88.5 211.5 C87.69369141 212.40298828 87.69369141 212.40298828 86.87109375 213.32421875 C69.8908584 231.58116352 41.31402011 245.18725517 16.5 246.5 C11.769734 246.6529742 7.04501125 246.68504919 2.3125 246.6875 C1.08724609 246.69974609 -0.13800781 246.71199219 -1.40039062 246.72460938 C-31.7972903 246.77268038 -57.35045345 235.65967857 -80.5 216.5 C-81.34498047 215.84064453 -81.34498047 215.84064453 -82.20703125 215.16796875 C-100.49454167 200.74061884 -111.42475786 177.63272487 -118.3125 156 C-118.5194751 155.35401855 -118.7264502 154.70803711 -118.93969727 154.04248047 C-121.02911541 147.24549326 -121.6566312 140.627047 -121.66796875 133.546875 C-121.67296135 132.4355722 -121.67296135 132.4355722 -121.67805481 131.30181885 C-121.68308883 129.74207168 -121.68546423 128.18231387 -121.68530273 126.62255859 C-121.68748118 124.27032143 -121.7056523 121.91856023 -121.72460938 119.56640625 C-121.75618741 111.33706138 -121.48807273 103.53765257 -119.5 95.5 C-119.33363037 94.81873047 -119.16726074 94.13746094 -118.99584961 93.43554688 C-114.89812716 77.87890012 -107.97804101 63.4791133 -98.5 50.5 C-97.97148437 49.74847656 -97.44296875 48.99695313 -96.8984375 48.22265625 C-74.62019352 17.87815153 -37.44844296 -0.25181307 0 0 Z " fill="#2A2E30" transform="translate(536.5,716.5)"/>
</svg>
